# Alias OBJ Model File
# Exported from SketchUp, (c) 2000-2012 Trimble Navigation Limited
# File units = meters

mtllib Fuselage.mtl

g Mesh1 Model

usemtl Metal_Aluminum_Anodized
v -1.48753 0 -0.398581
vt 1.08452 0.290596
vn 0 -1 -0
v -1.48753 0 0.398581
vt 1.08452 -0.290596
v -1.54 0 -1.88596e-016
vt 1.12278 1.375e-016
f 1/1/1 2/2/1 3/3/1

v -1.33368 0 0.77
vt 0.972353 -0.561388
f 2/2/1 1/1/1 4/4/1

v -1.33368 0 -0.77
vt 0.972353 0.561388
f 4/4/1 1/1/1 5/5/1

vt 3.20833 0
vn -0.965926 0 -0.258819
v -1.33368 4.42 -0.77
vt 2.91667 3.22251
vn -0.866025 0 -0.5
vt 2.91667 0
f 1/6/2 6/7/3 5/8/3

v -1.48753 4.42 -0.398581
vt 3.20833 3.22251
f 6/7/3 1/6/2 7/9/2

vt 3.5 0
vn -1 0 -3.35941e-016
f 3/10/4 7/9/2 1/6/2

v -1.54 4.42 -1.88596e-016
vt 3.5 3.22251
f 7/9/2 3/10/4 8/11/4

vt 3.79167 0
vn -0.965926 0 0.258819
f 2/12/5 8/11/4 3/10/4

v -1.48753 4.42 0.398581
vt 3.79167 3.22251
f 8/11/4 2/12/5 9/13/5

vt 4.08333 0
vn -0.866025 0 0.5
f 4/14/6 9/13/5 2/12/5

v -1.33368 4.42 0.77
vt 4.08333 3.22251
f 9/13/5 4/14/6 10/15/6

v -1.08894 0 1.08894
vt 4.375 0
vn -0.707107 0 0.707107
f 11/16/7 10/15/6 4/14/6

v -1.08894 4.42 1.08894
vt 4.375 3.22251
f 10/15/6 11/16/7 12/17/7

v -0.77 4.42 1.33368
vt 4.66667 3.22251
vn -0.5 0 0.866025
f 11/16/7 13/18/8 12/17/7

v -0.77 0 1.33368
vt 4.66667 0
f 13/18/8 11/16/7 14/19/8

vt 0.793923 -0.793923
v -1.08894 0 -1.08894
vt 0.793923 0.793923
vt 0.561388 -0.972353
f 11/20/1 15/21/1 14/22/1

f 11/20/1 5/5/1 15/21/1

f 4/4/1 5/5/1 11/20/1

v -1.08894 4.42 -1.08894
vt 2.625 3.22251
vn -0.707107 0 -0.707107
vt 2.625 0
f 5/8/3 16/23/9 15/24/9

f 16/23/9 5/8/3 6/7/3

vt -0.972353 0.561388
vn 0 1 -0
vt -0.793923 -0.793923
vt -0.793923 0.793923
f 6/25/10 12/26/10 16/27/10

vt -0.972353 -0.561388
f 6/25/10 10/28/10 12/26/10

vt -1.08452 0.290596
f 7/29/10 10/28/10 6/25/10

vt -1.08452 -0.290596
f 7/29/10 9/30/10 10/28/10

vt -1.12278 1.375e-016
f 9/30/10 7/29/10 8/31/10

vt -0.561388 -0.972353
f 16/27/10 12/26/10 13/32/10

v -0.77 4.42 -1.33368
vt -0.561388 0.972353
f 16/27/10 13/32/10 17/33/10

v -0.398581 4.42 1.48753
vt -0.290596 -1.08452
f 17/33/10 13/32/10 18/34/10

vt 4.95833 3.22251
vn -0.258819 0 0.965926
f 14/19/8 18/35/11 13/18/8

v -0.398581 0 1.48753
vt 4.95833 0
f 18/35/11 14/19/8 19/36/11

v -0.77 0 -1.33368
vt 0.561388 0.972353
vt 0.290596 -1.08452
f 14/22/1 20/37/1 19/38/1

f 14/22/1 15/21/1 20/37/1

vt 2.33333 0
vn -0.5 0 -0.866025
f 16/23/9 20/39/12 15/24/9

vt 2.33333 3.22251
f 20/39/12 16/23/9 17/40/12

v -0.398581 0 -1.48753
vt 2.04167 0
vn -0.258819 0 -0.965926
f 17/40/12 21/41/13 20/39/12

v -0.398581 4.42 -1.48753
vt 2.04167 3.22251
f 21/41/13 17/40/12 22/42/13

vt -0.290596 1.08452
f 17/33/10 18/34/10 22/43/10

v -2.82893e-016 4.42 1.54
vt -2.06251e-016 -1.12278
f 22/43/10 18/34/10 23/44/10

vt 5.25 3.22251
vn -4.47921e-016 0 1
f 19/36/11 23/45/14 18/35/11

v -2.82893e-016 0 1.54
vt 5.25 0
f 23/45/14 19/36/11 24/46/14

vt 0.290596 1.08452
vt 2.06251e-016 -1.12278
f 19/38/1 21/47/1 24/48/1

f 19/38/1 20/37/1 21/47/1

v 9.42978e-017 0 -1.54
vt -6.87502e-017 1.12278
f 24/48/1 21/47/1 25/49/1

vt 1.75 0
vn 1.6797e-016 0 -1
f 22/42/13 25/50/15 21/41/13

v 9.42978e-017 4.42 -1.54
vt 1.75 3.22251
f 25/50/15 22/42/13 26/51/15

vt 6.87502e-017 1.12278
f 22/43/10 23/44/10 26/52/10

v 0.398581 4.42 1.48753
f 26/52/10 23/44/10 27/38/10

vt 5.54167 3.22251
vn 0.258819 0 0.965926
f 24/46/14 27/53/16 23/45/14

v 0.398581 0 1.48753
vt 5.54167 0
f 27/53/16 24/46/14 28/54/16

f 24/48/1 25/49/1 28/34/1

v 0.398581 0 -1.48753
f 28/34/1 25/49/1 29/43/1

vt 1.45833 0
vn 0.258819 0 -0.965926
f 26/51/15 29/55/17 25/50/15

v 0.398581 4.42 -1.48753
vt 1.45833 3.22251
f 29/55/17 26/51/15 30/56/17

f 26/52/10 27/38/10 30/47/10

v 0.77 4.42 1.33368
f 30/47/10 27/38/10 31/22/10

vt 5.83333 3.22251
vn 0.5 0 0.866025
f 28/54/16 31/57/18 27/53/16

v 0.77 0 1.33368
vt 5.83333 0
f 31/57/18 28/54/16 32/58/18

f 28/34/1 29/43/1 32/32/1

v 0.77 0 -1.33368
f 32/32/1 29/43/1 33/33/1

vt 1.16667 0
vn 0.5 0 -0.866025
f 30/56/17 33/59/19 29/55/17

v 0.77 4.42 -1.33368
vt 1.16667 3.22251
f 33/59/19 30/56/17 34/60/19

f 30/47/10 31/22/10 34/37/10

v 1.08894 4.42 1.08894
f 34/37/10 31/22/10 35/20/10

vt 6.125 3.22251
vn 0.707107 0 0.707107
f 32/58/18 35/61/20 31/57/18

v 1.08894 0 1.08894
vt 6.125 0
f 35/61/20 32/58/18 36/62/20

f 32/32/1 33/33/1 36/26/1

v 1.08894 0 -1.08894
f 36/26/1 33/33/1 37/27/1

vt 0.875 0
vn 0.707107 0 -0.707107
f 34/60/19 37/63/21 33/59/19

v 1.08894 4.42 -1.08894
vt 0.875 3.22251
f 37/63/21 34/60/19 38/64/21

f 34/37/10 35/20/10 38/21/10

v 1.33368 4.42 0.77
f 38/21/10 35/20/10 39/4/10

v 1.33368 0 0.77
vt 6.41667 0
vn 0.866025 0 0.5
vt 6.41667 3.22251
f 35/61/20 40/65/22 39/66/22

f 40/65/22 35/61/20 36/62/20

f 36/26/1 37/27/1 40/28/1

v 1.33368 0 -0.77
f 40/28/1 37/27/1 41/25/1

v 1.33368 4.42 -0.77
vt 0.583333 3.22251
vn 0.866025 0 -0.5
vt 0.583333 0
f 37/63/21 42/67/23 41/68/23

f 42/67/23 37/63/21 38/64/21

f 38/21/10 39/4/10 42/5/10

v 1.48753 4.42 0.398581
f 42/5/10 39/4/10 43/2/10

v 1.48753 0 0.398581
vt 6.70833 0
vn 0.965926 0 0.258819
vt 6.70833 3.22251
f 39/66/22 44/69/24 43/70/24

f 44/69/24 39/66/22 40/65/22

f 40/28/1 41/25/1 44/30/1

v 1.48753 0 -0.398581
f 44/30/1 41/25/1 45/29/1

v 1.48753 4.42 -0.398581
vt 0.291667 3.22251
vn 0.965926 0 -0.258819
vt 0.291667 0
f 41/68/23 46/71/25 45/72/25

f 46/71/25 41/68/23 42/67/23

f 42/5/10 43/2/10 46/1/10

v 1.54 4.42 -0
vt 1.12278 0
f 46/1/10 43/2/10 47/73/10

v 1.54 0 -0
vt 7 0
vn 1 0 2.37958e-016
vt 7 3.22251
f 43/70/24 48/74/26 47/75/26

f 48/74/26 43/70/24 44/69/24

vt -1.12278 0
f 44/30/1 45/29/1 48/76/1

vt 0 3.22251
vt 0 0
f 45/72/25 47/77/26 48/78/26

f 47/77/26 45/72/25 46/71/25

