# Blender v2.68 (sub 0) OBJ File: 'fuselage.blend'
# www.blender.org
mtllib fuselage.mtl
o Cylinder
v 0.143352 -1.042753 -0.028886
v 0.143352 5.997196 -0.028886
v 0.338443 -1.042753 -0.009672
v 0.338443 5.997196 -0.009672
v 0.526036 -1.042753 0.047234
v 0.526036 5.997196 0.047234
v 0.698923 -1.042753 0.139644
v 0.698923 5.997196 0.139644
v 0.850459 -1.042753 0.264007
v 0.850459 5.997196 0.264007
v 0.974822 -1.042753 0.415543
v 0.974822 5.997196 0.415543
v 1.067232 -1.042753 0.588430
v 1.067232 5.997196 0.588430
v 1.124138 -1.042753 0.776023
v 1.124138 5.997196 0.776023
v 1.143352 -1.042753 0.971114
v 1.143352 5.997196 0.971114
v 1.124138 -1.042753 1.166204
v 1.124138 5.997196 1.166204
v 1.067232 -1.042753 1.353797
v 1.067232 5.997196 1.353797
v 0.974822 -1.042753 1.526684
v 0.974822 5.997196 1.526684
v 0.850459 -1.042753 1.678221
v 0.850459 5.997196 1.678221
v 0.698922 -1.042753 1.802583
v 0.698922 5.997196 1.802583
v 0.526036 -1.042753 1.894993
v 0.526036 5.997196 1.894993
v 0.338442 -1.042753 1.951899
v 0.338442 5.997196 1.951899
v 0.143352 -1.042753 1.971114
v 0.143352 5.997196 1.971114
v -0.051738 -1.042753 1.951899
v -0.051738 5.997196 1.951899
v -0.239332 -1.042753 1.894993
v -0.239332 5.997196 1.894993
v -0.412218 -1.042753 1.802583
v -0.412218 5.997196 1.802583
v -0.563755 -1.042753 1.678220
v -0.563755 5.997196 1.678220
v -0.688118 -1.042753 1.526683
v -0.688118 5.997196 1.526683
v -0.780528 -1.042753 1.353796
v -0.780528 5.997196 1.353796
v -0.837433 -1.042753 1.166203
v -0.837433 5.997196 1.166203
v -0.856648 -1.042753 0.971113
v -0.856648 5.997196 0.971113
v -0.837433 -1.042753 0.776022
v -0.837433 5.997196 0.776022
v -0.780527 -1.042753 0.588429
v -0.780527 5.997196 0.588429
v -0.688117 -1.042753 0.415542
v -0.688117 5.997196 0.415542
v -0.563754 -1.042753 0.264006
v -0.563754 5.997196 0.264006
v -0.412217 -1.042753 0.139643
v -0.412217 5.997196 0.139643
v -0.239330 -1.042753 0.047234
v -0.239330 5.997196 0.047234
v -0.051737 -1.042753 -0.009672
v -0.051737 5.997196 -0.009672
vt 0.518358 0.335436
vt 0.512503 0.939984
vt 0.486761 0.335338
vt 0.480906 0.939885
vt 0.455771 0.335241
vt 0.449916 0.939788
vt 0.426579 0.335150
vt 0.420724 0.939697
vt 0.400307 0.335067
vt 0.394452 0.939615
vt 0.377965 0.334997
vt 0.359113 0.389620
vt 0.360267 0.995701
vt 0.328452 0.389772
vt 0.329606 0.995853
vt 0.294383 0.389940
vt 0.295537 0.996021
vt 0.258216 0.390119
vt 0.259370 0.996200
vt 0.221340 0.390301
vt 0.222494 0.996382
vt 0.185173 0.390480
vt 0.186327 0.996561
vt 0.151104 0.390648
vt 0.152258 0.996729
vt 0.120443 0.390800
vt 0.620740 0.336618
vt 0.614963 0.940127
vt 0.592718 0.336520
vt 0.586941 0.940029
vt 0.561581 0.336411
vt 0.555804 0.939920
vt 0.528527 0.336296
vt 0.522750 0.939805
vt 0.494825 0.336178
vt 0.489048 0.939687
vt 0.461771 0.336062
vt 0.455994 0.939571
vt 0.430634 0.335953
vt 0.424857 0.939462
vt 0.402612 0.335855
vt 0.396835 0.939364
vt 0.378781 0.335772
vt 0.357318 0.385774
vt 0.358348 0.998120
vt 0.329947 0.385927
vt 0.330977 0.998273
vt 0.299535 0.386097
vt 0.300565 0.998443
vt 0.267249 0.386277
vt 0.268279 0.998623
vt 0.234331 0.386462
vt 0.235361 0.998808
vt 0.202045 0.386642
vt 0.203075 0.998988
vt 0.171632 0.386812
vt 0.172663 0.999158
vt 0.144262 0.386965
vt 0.145292 0.999311
vt 0.120985 0.387095
vt 0.627153 0.335777
vt 0.621299 0.940324
vt 0.604811 0.335707
vt 0.598956 0.940254
vt 0.578539 0.335625
vt 0.053426 0.127815
vt 0.059963 0.097989
vt 0.054451 0.155964
vt 0.549347 0.335533
vt 0.543493 0.940081
vt 0.572684 0.940172
vt 0.074077 0.203453
vt 0.060879 0.176900
vt 0.090859 0.222925
vt 0.372110 0.939545
vt 0.121597 0.996881
vt 0.373004 0.939281
vt 0.122015 0.999442
vt 0.074276 0.072193
vt 0.091676 0.051901
vt 0.111603 0.036132
vt 0.135603 0.024689
vt 0.160174 0.015952
vt 0.183979 0.012666
vt 0.211156 0.013392
vt 0.235986 0.017768
vt 0.261583 0.027050
vt 0.283122 0.039219
vt 0.302816 0.057356
vt 0.334057 0.155065
vt 0.330156 0.102199
vt 0.335659 0.130331
vt 0.319748 0.079456
vt 0.326152 0.181069
vt 0.314351 0.202961
vt 0.235422 0.256388
vt 0.278254 0.237524
vt 0.258559 0.248649
vt 0.295977 0.224025
vt 0.212386 0.261126
vt 0.177460 0.261199
vt 0.162839 0.258929
vt 0.141138 0.253461
vt 0.116728 0.241473
vt 0.095366 0.226976
vt 0.076531 0.206139
vt 0.063448 0.183430
vt 0.054830 0.152928
vt 0.054830 0.123663
vt 0.060239 0.097988
vt 0.074397 0.072854
vt 0.089898 0.054233
vt 0.109423 0.038085
vt 0.131027 0.027059
vt 0.153608 0.017706
vt 0.177581 0.012937
vt 0.202023 0.012937
vt 0.227276 0.016571
vt 0.333903 0.156332
vt 0.328734 0.097279
vt 0.334703 0.130826
vt 0.314576 0.072570
vt 0.296192 0.051183
vt 0.275706 0.238364
vt 0.314976 0.201822
vt 0.296192 0.223918
vt 0.227596 0.258105
vt 0.250978 0.250524
vt 0.109103 0.236803
vt 0.251139 0.022520
vt 0.276907 0.036383
vt 0.325931 0.180304
vt 0.202023 0.261100
vt 0.177581 0.261100
vt 0.163284 0.258946
vt 0.141851 0.253660
vn 0.098017 0.000000 -0.995185
vn 0.290285 0.000000 -0.956940
vn 0.471397 0.000000 -0.881921
vn 0.634393 0.000000 -0.773010
vn 0.773010 0.000000 -0.634393
vn 0.881921 0.000000 -0.471396
vn 0.956940 0.000000 -0.290285
vn 0.995185 0.000000 -0.098017
vn 0.995185 0.000000 0.098017
vn 0.956940 0.000000 0.290285
vn 0.881921 0.000000 0.471397
vn 0.773011 0.000000 0.634393
vn 0.634393 0.000000 0.773011
vn 0.471397 0.000000 0.881921
vn 0.290285 0.000000 0.956940
vn 0.098017 0.000000 0.995185
vn -0.098018 0.000000 0.995185
vn -0.290285 0.000000 0.956940
vn -0.471397 0.000000 0.881921
vn -0.634394 0.000000 0.773010
vn -0.773011 0.000000 0.634393
vn -0.881922 0.000000 0.471396
vn -0.956941 0.000000 0.290284
vn -0.995185 0.000000 0.098016
vn -0.995185 -0.000000 -0.098018
vn -0.956940 -0.000000 -0.290286
vn -0.881921 -0.000000 -0.471398
vn -0.773010 -0.000000 -0.634394
vn -0.634392 -0.000000 -0.773011
vn -0.471396 -0.000000 -0.881922
vn -0.000000 1.000000 0.000000
vn -0.098017 -0.000000 -0.995185
vn -0.290283 -0.000000 -0.956941
vn 0.000000 -1.000000 -0.000000
usemtl Material
s off
f 1/1/1 2/2/1 3/3/1
f 3/3/2 4/4/2 5/5/2
f 5/5/3 6/6/3 7/7/3
f 7/7/4 8/8/4 9/9/4
f 9/9/5 10/10/5 11/11/5
f 11/12/6 12/13/6 13/14/6
f 13/14/7 14/15/7 15/16/7
f 15/16/8 16/17/8 17/18/8
f 17/18/9 18/19/9 19/20/9
f 19/20/10 20/21/10 21/22/10
f 21/22/11 22/23/11 23/24/11
f 23/24/12 24/25/12 25/26/12
f 25/27/13 26/28/13 27/29/13
f 27/29/14 28/30/14 29/31/14
f 29/31/15 30/32/15 31/33/15
f 31/33/16 32/34/16 33/35/16
f 33/35/17 34/36/17 35/37/17
f 35/37/18 36/38/18 37/39/18
f 37/39/19 38/40/19 39/41/19
f 39/41/20 40/42/20 41/43/20
f 41/44/21 42/45/21 43/46/21
f 43/46/22 44/47/22 45/48/22
f 45/48/23 46/49/23 47/50/23
f 47/50/24 48/51/24 49/52/24
f 49/52/25 50/53/25 51/54/25
f 51/54/26 52/55/26 53/56/26
f 53/56/27 54/57/27 55/58/27
f 55/58/28 56/59/28 57/60/28
f 57/61/29 58/62/29 59/63/29
f 59/63/30 60/64/30 61/65/30
f 4/66/31 2/67/31 6/68/31
f 63/69/32 64/70/32 1/1/32
f 61/65/33 62/71/33 63/69/33
f 1/72/34 3/73/34 63/74/34
f 2/2/1 4/4/1 3/3/1
f 4/4/2 6/6/2 5/5/2
f 6/6/3 8/8/3 7/7/3
f 8/8/4 10/10/4 9/9/4
f 10/10/5 12/75/5 11/11/5
f 12/13/6 14/15/6 13/14/6
f 14/15/7 16/17/7 15/16/7
f 16/17/8 18/19/8 17/18/8
f 18/19/9 20/21/9 19/20/9
f 20/21/10 22/23/10 21/22/10
f 22/23/11 24/25/11 23/24/11
f 24/25/12 26/76/12 25/26/12
f 26/28/13 28/30/13 27/29/13
f 28/30/14 30/32/14 29/31/14
f 30/32/15 32/34/15 31/33/15
f 32/34/16 34/36/16 33/35/16
f 34/36/17 36/38/17 35/37/17
f 36/38/18 38/40/18 37/39/18
f 38/40/19 40/42/19 39/41/19
f 40/42/20 42/77/20 41/43/20
f 42/45/21 44/47/21 43/46/21
f 44/47/22 46/49/22 45/48/22
f 46/49/23 48/51/23 47/50/23
f 48/51/24 50/53/24 49/52/24
f 50/53/25 52/55/25 51/54/25
f 52/55/26 54/57/26 53/56/26
f 54/57/27 56/59/27 55/58/27
f 56/59/28 58/78/28 57/60/28
f 58/62/29 60/64/29 59/63/29
f 60/64/30 62/71/30 61/65/30
f 2/67/31 64/79/31 6/68/31
f 64/79/31 62/80/31 6/68/31
f 62/80/31 60/81/31 6/68/31
f 60/81/31 58/82/31 6/68/31
f 58/82/31 56/83/31 6/68/31
f 56/83/31 54/84/31 6/68/31
f 54/84/31 52/85/31 6/68/31
f 52/85/31 50/86/31 6/68/31
f 50/86/31 48/87/31 6/68/31
f 48/87/31 46/88/31 6/68/31
f 46/88/31 44/89/31 6/68/31
f 36/90/31 40/91/31 38/92/31
f 42/93/31 40/91/31 36/90/31
f 44/89/31 42/93/31 6/68/31
f 42/93/31 36/90/31 6/68/31
f 36/90/31 34/94/31 6/68/31
f 34/94/31 32/95/31 6/68/31
f 24/96/31 28/97/31 26/98/31
f 30/99/31 28/97/31 24/96/31
f 32/95/31 30/99/31 6/68/31
f 30/99/31 24/96/31 6/68/31
f 24/96/31 22/100/31 6/68/31
f 22/100/31 20/101/31 6/68/31
f 20/101/31 18/102/31 6/68/31
f 18/102/31 16/103/31 6/68/31
f 16/103/31 14/104/31 6/68/31
f 14/104/31 12/105/31 6/68/31
f 12/105/31 10/106/31 6/68/31
f 10/106/31 8/107/31 6/68/31
f 64/70/32 2/2/32 1/1/32
f 62/71/33 64/70/33 63/69/33
f 3/73/34 5/108/34 63/74/34
f 5/108/34 7/109/34 63/74/34
f 7/109/34 9/110/34 63/74/34
f 9/110/34 11/111/34 63/74/34
f 11/111/34 13/112/34 63/74/34
f 13/112/34 15/113/34 63/74/34
f 15/113/34 17/114/34 63/74/34
f 17/114/34 19/115/34 63/74/34
f 19/115/34 21/116/34 63/74/34
f 21/116/34 23/117/34 63/74/34
f 23/117/34 25/118/34 63/74/34
f 39/119/34 35/120/34 37/121/34
f 39/119/34 33/122/34 35/120/34
f 39/119/34 31/123/34 33/122/34
f 47/124/34 43/125/34 45/126/34
f 51/127/34 47/124/34 49/128/34
f 51/127/34 43/125/34 47/124/34
f 63/74/34 25/118/34 61/129/34
f 25/118/34 27/130/34 61/129/34
f 27/130/34 29/131/34 61/129/34
f 29/131/34 31/123/34 61/129/34
f 31/123/34 39/119/34 61/129/34
f 39/119/34 41/132/34 61/129/34
f 41/132/34 43/125/34 61/129/34
f 43/125/34 51/127/34 61/129/34
f 51/127/34 53/133/34 61/129/34
f 53/133/34 55/134/34 61/129/34
f 55/134/34 57/135/34 61/129/34
f 57/135/34 59/136/34 61/129/34
