# Blender v2.68 (sub 0) OBJ File: 'collage.blend'
# www.blender.org
mtllib Fuselage.mtl
v -0.658218 -0.001653 0.602775
v -0.658217 0.918489 0.602775
v -0.658217 1.838629 0.602775
v -0.658217 2.758770 0.602775
v -0.658217 3.678911 0.602775
v -0.658217 4.599052 0.602775
v -0.658218 5.519193 0.602775
v -0.658217 6.439331 0.602775
v -0.834449 -0.001653 0.369796
v -0.834449 0.918487 0.369796
v -0.834449 1.838629 0.369796
v -0.834449 2.758770 0.369796
v -0.834449 3.678911 0.369796
v -0.834449 4.599051 0.369796
v -0.834449 5.519193 0.369796
v -0.834449 6.439331 0.369796
v -0.920328 -0.001653 0.165888
v -0.920328 0.918488 0.165888
v -0.920328 1.838629 0.165888
v -0.920328 2.758770 0.165888
v -0.920328 3.678911 0.165888
v -0.920328 4.599052 0.165888
v -0.920328 5.519193 0.165888
v -0.920327 6.439331 0.165888
v -0.947642 -0.001653 0.014402
v -0.947643 0.918488 0.014402
v -0.947643 1.838629 0.014402
v -0.947642 2.758770 0.014402
v -0.947642 3.678911 0.014402
v -0.947642 4.599051 0.014402
v -0.947643 5.519193 0.014402
v -0.947643 6.439332 0.014402
v -0.951111 -0.001653 -0.104332
v -0.951111 0.918488 -0.104332
v -0.951111 1.838629 -0.104332
v -0.951111 2.758770 -0.104332
v -0.951111 3.678911 -0.104332
v -0.951111 4.599052 -0.104332
v -0.951111 5.519193 -0.104332
v -0.951111 6.439331 -0.104332
v -0.947642 -0.001653 -0.223066
v -0.947642 0.918488 -0.223066
v -0.947642 1.838629 -0.223066
v -0.947642 2.758770 -0.223066
v -0.947642 3.678911 -0.223066
v -0.947642 4.599052 -0.223066
v -0.947642 5.519193 -0.223066
v -0.947642 6.439332 -0.223066
v -0.920328 -0.001653 -0.374552
v -0.920328 0.918488 -0.374552
v -0.920328 1.838629 -0.374552
v -0.920328 2.758770 -0.374552
v -0.920327 3.678911 -0.374552
v -0.920328 4.599052 -0.374552
v -0.920328 5.519193 -0.374552
v -0.920328 6.439332 -0.374552
v -0.834449 -0.001653 -0.578460
v -0.834449 0.918488 -0.578460
v -0.834449 1.838629 -0.578460
v -0.834449 2.758770 -0.578460
v -0.834449 3.678911 -0.578460
v -0.834449 4.599051 -0.578460
v -0.834449 5.519193 -0.578460
v -0.834449 6.439332 -0.578460
v -0.658218 -0.001653 -0.811439
v -0.658217 0.918489 -0.811439
v -0.658217 1.838629 -0.811439
v -0.658217 2.758770 -0.811439
v -0.658217 3.678911 -0.811439
v -0.658218 4.599052 -0.811439
v -0.658218 5.519193 -0.811439
v -0.658217 6.439331 -0.811439
v -0.425239 -0.001653 -0.987670
v -0.425239 0.918487 -0.987670
v -0.425239 1.838629 -0.987670
v -0.425239 2.758770 -0.987670
v -0.425239 3.678911 -0.987670
v -0.425239 4.599051 -0.987670
v -0.425239 5.519193 -0.987670
v -0.425239 6.439331 -0.987670
v -0.221331 -0.001653 -1.073549
v -0.221331 0.918488 -1.073549
v -0.221331 1.838629 -1.073549
v -0.221331 2.758770 -1.073549
v -0.221331 3.678911 -1.073549
v -0.221331 4.599052 -1.073549
v -0.221331 5.519193 -1.073549
v -0.221331 6.439331 -1.073549
v -0.069844 -0.001653 -1.100864
v -0.069845 0.918488 -1.100864
v -0.069844 1.838629 -1.100864
v -0.069845 2.758770 -1.100864
v -0.069844 3.678911 -1.100864
v -0.069844 4.599051 -1.100864
v -0.069844 5.519193 -1.100864
v -0.069844 6.439332 -1.100864
v 0.048889 -0.001653 -1.104332
v 0.048889 0.918488 -1.104332
v 0.048889 1.838629 -1.104332
v 0.048889 2.758770 -1.104332
v 0.048889 3.678911 -1.104332
v 0.048889 4.599052 -1.104332
v 0.048889 5.519193 -1.104332
v 0.048889 6.439331 -1.104332
v 0.167623 -0.001653 -1.100864
v 0.167623 0.918488 -1.100864
v 0.167623 1.838629 -1.100864
v 0.167623 2.758770 -1.100864
v 0.167623 3.678911 -1.100864
v 0.167623 4.599052 -1.100864
v 0.167623 5.519193 -1.100864
v 0.167623 6.439332 -1.100864
v 0.319109 -0.001653 -1.073549
v 0.319109 0.918488 -1.073549
v 0.319109 1.838629 -1.073549
v 0.319109 2.758770 -1.073549
v 0.319109 3.678911 -1.073549
v 0.319109 4.599052 -1.073549
v 0.319109 5.519193 -1.073549
v 0.319109 6.439332 -1.073549
v 0.523017 -0.001653 -0.987670
v 0.523017 0.918488 -0.987670
v 0.523017 1.838629 -0.987670
v 0.523017 2.758770 -0.987670
v 0.523017 3.678911 -0.987670
v 0.523017 4.599051 -0.987670
v 0.523017 5.519193 -0.987670
v 0.523017 6.439332 -0.987670
v 0.755996 -0.001653 -0.811439
v 0.755996 0.918489 -0.811439
v 0.755996 1.838629 -0.811439
v 0.755996 2.758770 -0.811439
v 0.755996 3.678911 -0.811439
v 0.755996 4.599052 -0.811439
v 0.755996 5.519193 -0.811439
v 0.755996 6.439331 -0.811439
v 0.932228 -0.001653 -0.578460
v 0.932228 0.918487 -0.578460
v 0.932228 1.838629 -0.578460
v 0.932228 2.758770 -0.578460
v 0.932228 3.678911 -0.578460
v 0.932228 4.599051 -0.578460
v 0.932228 5.519193 -0.578460
v 0.932228 6.439331 -0.578460
v 1.018106 -0.001653 -0.374552
v 1.018106 0.918488 -0.374552
v 1.018106 1.838629 -0.374552
v 1.018106 2.758770 -0.374552
v 1.018106 3.678911 -0.374552
v 1.018106 4.599052 -0.374552
v 1.018106 5.519193 -0.374552
v 1.018106 6.439331 -0.374552
v 1.045421 -0.001653 -0.223066
v 1.045421 0.918488 -0.223066
v 1.045421 1.838629 -0.223066
v 1.045421 2.758770 -0.223066
v 1.045421 3.678911 -0.223066
v 1.045421 4.599051 -0.223066
v 1.045421 5.519193 -0.223066
v 1.045421 6.439332 -0.223066
v 1.048889 -0.001653 -0.104332
v 1.048889 0.918488 -0.104332
v 1.048889 1.838629 -0.104332
v 1.048889 2.758770 -0.104332
v 1.048889 3.678911 -0.104332
v 1.048889 4.599052 -0.104332
v 1.048889 5.519193 -0.104332
v 1.048889 6.439331 -0.104332
v 1.045421 -0.001653 0.014402
v 1.045421 0.918488 0.014402
v 1.045421 1.838629 0.014402
v 1.045421 2.758770 0.014402
v 1.045421 3.678911 0.014402
v 1.045421 4.599052 0.014402
v 1.045421 5.519193 0.014402
v 1.045421 6.439332 0.014402
v 1.018106 -0.001653 0.165888
v 1.018106 0.918488 0.165888
v 1.018106 1.838629 0.165888
v 1.018106 2.758770 0.165888
v 1.018106 3.678911 0.165888
v 1.018106 4.599052 0.165888
v 1.018106 5.519193 0.165888
v 1.018106 6.439332 0.165888
v 0.932228 -0.001653 0.369796
v 0.932228 0.918488 0.369796
v 0.932228 1.838629 0.369796
v 0.932228 2.758770 0.369796
v 0.932228 3.678911 0.369796
v 0.932228 4.599051 0.369796
v 0.932228 5.519193 0.369796
v 0.932228 6.439332 0.369796
v 0.755996 -0.001653 0.602775
v 0.755996 0.918489 0.602775
v 0.755996 1.838629 0.602775
v 0.755996 2.758770 0.602775
v 0.755996 3.678911 0.602775
v 0.755996 4.599052 0.602775
v 0.755996 5.519193 0.602775
v 0.755996 6.439331 0.602775
v 0.523017 -0.001653 0.779006
v 0.523017 0.918487 0.779006
v 0.523017 1.838629 0.779007
v 0.523017 2.758770 0.779006
v 0.523017 3.678911 0.779006
v 0.523017 4.599051 0.779006
v 0.523017 5.519193 0.779006
v 0.523017 6.439331 0.779006
v 0.319109 -0.001653 0.864885
v 0.319109 0.918488 0.864885
v 0.319109 1.838629 0.864885
v 0.319109 2.758770 0.864885
v 0.319109 3.678911 0.864885
v 0.319109 4.599052 0.864885
v 0.319109 5.519193 0.864885
v 0.319109 6.439331 0.864885
v 0.167623 -0.001653 0.892200
v 0.167623 0.918488 0.892200
v 0.167623 1.838629 0.892200
v 0.167623 2.758770 0.892200
v 0.167623 3.678911 0.892200
v 0.167623 4.599051 0.892200
v 0.167623 5.519193 0.892200
v 0.167623 6.439332 0.892200
v 0.048889 -0.001653 0.895668
v 0.048889 0.918488 0.895668
v 0.048889 1.838629 0.895668
v 0.048889 2.758770 0.895668
v 0.048889 3.678911 0.895668
v 0.048889 4.599052 0.895668
v 0.048889 5.519193 0.895668
v 0.048889 6.439331 0.895668
v -0.069844 -0.001653 0.892200
v -0.069844 0.918488 0.892200
v -0.069844 1.838629 0.892200
v -0.069844 2.758770 0.892200
v -0.069844 3.678911 0.892200
v -0.069844 4.599052 0.892200
v -0.069844 5.519193 0.892200
v -0.069844 6.439332 0.892200
v -0.221331 -0.001653 0.864885
v -0.221331 0.918488 0.864885
v -0.221331 1.838629 0.864885
v -0.221331 2.758770 0.864885
v -0.221331 3.678911 0.864885
v -0.221331 4.599052 0.864885
v -0.221331 5.519193 0.864885
v -0.221331 6.439332 0.864885
v -0.425239 -0.001653 0.779006
v -0.425239 0.918488 0.779006
v -0.425239 1.838629 0.779006
v -0.425239 2.758770 0.779006
v -0.425239 3.678911 0.779006
v -0.425239 4.599051 0.779006
v -0.425239 5.519193 0.779006
v -0.425239 6.439332 0.779006
vn -0.707083 0.000000 0.707083
vn -0.866268 0.000000 0.499557
vn -0.958647 0.000000 0.284494
vn -0.994598 0.000000 0.103610
vn -1.000000 0.000000 0.000000
vn -0.994598 0.000000 -0.103610
vn -0.958647 0.000000 -0.284494
vn -0.866268 0.000000 -0.499557
vn -0.707083 0.000000 -0.707083
vn -0.499557 0.000000 -0.866268
vn -0.284494 0.000000 -0.958647
vn -0.103610 0.000000 -0.994598
vn 0.000000 0.000000 -1.000000
vn 0.103610 0.000000 -0.994598
vn 0.284494 0.000000 -0.958647
vn 0.499557 0.000000 -0.866268
vn 0.707083 0.000000 -0.707083
vn 0.866268 0.000000 -0.499557
vn 0.958647 0.000000 -0.284494
vn 0.994598 0.000000 -0.103610
vn 1.000000 0.000000 0.000000
vn 0.994598 0.000000 0.103610
vn 0.958647 0.000000 0.284494
vn 0.866268 0.000000 0.499557
vn 0.707083 0.000000 0.707083
vn 0.499557 0.000000 0.866268
vn 0.284494 0.000000 0.958647
vn 0.103610 0.000000 0.994598
vn 0.000000 0.000000 1.000000
vn -0.103610 0.000000 0.994598
vn -0.284494 0.000000 0.958647
vn -0.499557 0.000000 0.866268
usemtl fuselage.png
s 1
f 2//1 10//2 9//2
f 3//1 11//2 10//2
f 4//1 12//2 3//1
f 5//1 13//2 4//1
f 6//1 14//2 13//2
f 7//1 15//2 6//1
f 8//1 16//2 7//1
f 10//2 18//3 9//2
f 11//2 19//3 10//2
f 12//2 20//3 11//2
f 13//2 21//3 12//2
f 14//2 22//3 13//2
f 15//2 23//3 14//2
f 16//2 24//3 15//2
f 18//3 26//4 17//3
f 19//3 27//4 18//3
f 20//3 28//4 19//3
f 21//3 29//4 20//3
f 22//3 30//4 21//3
f 23//3 31//4 22//3
f 24//3 32//4 23//3
f 26//4 34//5 25//4
f 27//4 35//5 26//4
f 28//4 36//5 27//4
f 29//4 37//5 28//4
f 30//4 38//5 29//4
f 31//4 39//5 30//4
f 32//4 40//5 31//4
f 34//5 42//6 33//5
f 35//5 43//6 34//5
f 36//5 44//6 35//5
f 37//5 45//6 36//5
f 38//5 46//6 37//5
f 39//5 47//6 38//5
f 40//5 48//6 39//5
f 42//6 50//7 49//7
f 43//6 51//7 50//7
f 44//6 52//7 43//6
f 45//6 53//7 44//6
f 46//6 54//7 45//6
f 47//6 55//7 46//6
f 48//6 56//7 47//6
f 50//7 58//8 49//7
f 51//7 59//8 50//7
f 52//7 60//8 51//7
f 53//7 61//8 52//7
f 54//7 62//8 53//7
f 55//7 63//8 54//7
f 56//7 64//8 55//7
f 58//8 66//9 57//8
f 59//8 67//9 58//8
f 60//8 68//9 59//8
f 61//8 69//9 60//8
f 62//8 70//9 61//8
f 63//8 71//9 62//8
f 64//8 72//9 63//8
f 66//9 74//10 73//10
f 67//9 75//10 74//10
f 68//9 76//10 67//9
f 69//9 77//10 68//9
f 70//9 78//10 77//10
f 71//9 79//10 70//9
f 72//9 80//10 71//9
f 74//10 82//11 73//10
f 75//10 83//11 74//10
f 76//10 84//11 75//10
f 77//10 85//11 76//10
f 78//10 86//11 77//10
f 79//10 87//11 78//10
f 80//10 88//11 79//10
f 82//11 90//12 81//11
f 83//11 91//12 82//11
f 84//11 92//12 83//11
f 85//11 93//12 84//11
f 86//11 94//12 85//11
f 87//11 95//12 86//11
f 88//11 96//12 87//11
f 90//12 98//13 89//12
f 91//12 99//13 90//12
f 92//12 100//13 91//12
f 93//12 101//13 92//12
f 94//12 102//13 93//12
f 95//12 103//13 94//12
f 96//12 104//13 95//12
f 98//13 106//14 97//13
f 99//13 107//14 98//13
f 100//13 108//14 99//13
f 101//13 109//14 100//13
f 102//13 110//14 101//13
f 103//13 111//14 102//13
f 104//13 112//14 103//13
f 106//14 114//15 113//15
f 107//14 115//15 114//15
f 108//14 116//15 107//14
f 109//14 117//15 108//14
f 110//14 118//15 109//14
f 111//14 119//15 110//14
f 112//14 120//15 111//14
f 114//15 122//16 113//15
f 115//15 123//16 114//15
f 116//15 124//16 115//15
f 117//15 125//16 116//15
f 118//15 126//16 117//15
f 119//15 127//16 118//15
f 120//15 128//16 119//15
f 122//16 130//17 121//16
f 123//16 131//17 122//16
f 124//16 132//17 123//16
f 125//16 133//17 124//16
f 126//16 134//17 125//16
f 127//16 135//17 126//16
f 128//16 136//17 127//16
f 130//17 138//18 137//18
f 131//17 139//18 138//18
f 132//17 140//18 131//17
f 133//17 141//18 132//17
f 134//17 142//18 141//18
f 135//17 143//18 134//17
f 136//17 144//18 135//17
f 138//18 146//19 137//18
f 139//18 147//19 138//18
f 140//18 148//19 139//18
f 141//18 149//19 140//18
f 142//18 150//19 141//18
f 143//18 151//19 142//18
f 144//18 152//19 143//18
f 146//19 154//20 145//19
f 147//19 155//20 146//19
f 148//19 156//20 147//19
f 149//19 157//20 148//19
f 150//19 158//20 149//19
f 151//19 159//20 150//19
f 152//19 160//20 151//19
f 154//20 162//21 153//20
f 155//20 163//21 154//20
f 156//20 164//21 155//20
f 157//20 165//21 156//20
f 158//20 166//21 157//20
f 159//20 167//21 158//20
f 160//20 168//21 159//20
f 162//21 170//22 161//21
f 163//21 171//22 162//21
f 164//21 172//22 163//21
f 165//21 173//22 164//21
f 166//21 174//22 165//21
f 167//21 175//22 166//21
f 168//21 176//22 167//21
f 170//22 178//23 177//23
f 171//22 179//23 178//23
f 172//22 180//23 171//22
f 173//22 181//23 172//22
f 174//22 182//23 173//22
f 175//22 183//23 174//22
f 176//22 184//23 175//22
f 178//23 186//24 177//23
f 179//23 187//24 178//23
f 180//23 188//24 179//23
f 181//23 189//24 180//23
f 182//23 190//24 181//23
f 183//23 191//24 182//23
f 184//23 192//24 183//23
f 186//24 194//25 185//24
f 187//24 195//25 186//24
f 188//24 196//25 187//24
f 189//24 197//25 188//24
f 190//24 198//25 189//24
f 191//24 199//25 190//24
f 192//24 200//25 191//24
f 194//25 202//26 201//26
f 195//25 203//26 202//26
f 196//25 204//26 195//25
f 197//25 205//26 196//25
f 198//25 206//26 205//26
f 199//25 207//26 198//25
f 200//25 208//26 199//25
f 202//26 210//27 201//26
f 203//26 211//27 202//26
f 204//26 212//27 203//26
f 205//26 213//27 204//26
f 206//26 214//27 205//26
f 207//26 215//27 206//26
f 208//26 216//27 207//26
f 210//27 218//28 209//27
f 211//27 219//28 210//27
f 212//27 220//28 211//27
f 213//27 221//28 212//27
f 214//27 222//28 213//27
f 215//27 223//28 214//27
f 216//27 224//28 215//27
f 218//28 226//29 217//28
f 219//28 227//29 218//28
f 220//28 228//29 219//28
f 221//28 229//29 220//28
f 222//28 230//29 221//28
f 223//28 231//29 222//28
f 224//28 232//29 223//28
f 226//29 234//30 225//29
f 227//29 235//30 226//29
f 228//29 236//30 227//29
f 229//29 237//30 228//29
f 230//29 238//30 229//29
f 231//29 239//30 230//29
f 232//29 240//30 231//29
f 234//30 242//31 241//31
f 235//30 243//31 242//31
f 236//30 244//31 235//30
f 237//30 245//31 236//30
f 238//30 246//31 237//30
f 239//30 247//31 238//30
f 240//30 248//31 239//30
f 242//31 250//32 241//31
f 243//31 251//32 242//31
f 244//31 252//32 243//31
f 245//31 253//32 244//31
f 246//31 254//32 245//31
f 247//31 255//32 246//31
f 248//31 256//32 247//31
f 250//32 2//1 249//32
f 251//32 3//1 250//32
f 252//32 4//1 251//32
f 253//32 5//1 252//32
f 254//32 6//1 253//32
f 255//32 7//1 254//32
f 256//32 8//1 255//32
f 1//1 2//1 9//2
f 2//1 3//1 10//2
f 12//2 11//2 3//1
f 13//2 12//2 4//1
f 5//1 6//1 13//2
f 15//2 14//2 6//1
f 16//2 15//2 7//1
f 18//3 17//3 9//2
f 19//3 18//3 10//2
f 20//3 19//3 11//2
f 21//3 20//3 12//2
f 22//3 21//3 13//2
f 23//3 22//3 14//2
f 24//3 23//3 15//2
f 26//4 25//4 17//3
f 27//4 26//4 18//3
f 28//4 27//4 19//3
f 29//4 28//4 20//3
f 30//4 29//4 21//3
f 31//4 30//4 22//3
f 32//4 31//4 23//3
f 34//5 33//5 25//4
f 35//5 34//5 26//4
f 36//5 35//5 27//4
f 37//5 36//5 28//4
f 38//5 37//5 29//4
f 39//5 38//5 30//4
f 40//5 39//5 31//4
f 42//6 41//6 33//5
f 43//6 42//6 34//5
f 44//6 43//6 35//5
f 45//6 44//6 36//5
f 46//6 45//6 37//5
f 47//6 46//6 38//5
f 48//6 47//6 39//5
f 41//6 42//6 49//7
f 42//6 43//6 50//7
f 52//7 51//7 43//6
f 53//7 52//7 44//6
f 54//7 53//7 45//6
f 55//7 54//7 46//6
f 56//7 55//7 47//6
f 58//8 57//8 49//7
f 59//8 58//8 50//7
f 60//8 59//8 51//7
f 61//8 60//8 52//7
f 62//8 61//8 53//7
f 63//8 62//8 54//7
f 64//8 63//8 55//7
f 66//9 65//9 57//8
f 67//9 66//9 58//8
f 68//9 67//9 59//8
f 69//9 68//9 60//8
f 70//9 69//9 61//8
f 71//9 70//9 62//8
f 72//9 71//9 63//8
f 65//9 66//9 73//10
f 66//9 67//9 74//10
f 76//10 75//10 67//9
f 77//10 76//10 68//9
f 69//9 70//9 77//10
f 79//10 78//10 70//9
f 80//10 79//10 71//9
f 82//11 81//11 73//10
f 83//11 82//11 74//10
f 84//11 83//11 75//10
f 85//11 84//11 76//10
f 86//11 85//11 77//10
f 87//11 86//11 78//10
f 88//11 87//11 79//10
f 90//12 89//12 81//11
f 91//12 90//12 82//11
f 92//12 91//12 83//11
f 93//12 92//12 84//11
f 94//12 93//12 85//11
f 95//12 94//12 86//11
f 96//12 95//12 87//11
f 98//13 97//13 89//12
f 99//13 98//13 90//12
f 100//13 99//13 91//12
f 101//13 100//13 92//12
f 102//13 101//13 93//12
f 103//13 102//13 94//12
f 104//13 103//13 95//12
f 106//14 105//14 97//13
f 107//14 106//14 98//13
f 108//14 107//14 99//13
f 109//14 108//14 100//13
f 110//14 109//14 101//13
f 111//14 110//14 102//13
f 112//14 111//14 103//13
f 105//14 106//14 113//15
f 106//14 107//14 114//15
f 116//15 115//15 107//14
f 117//15 116//15 108//14
f 118//15 117//15 109//14
f 119//15 118//15 110//14
f 120//15 119//15 111//14
f 122//16 121//16 113//15
f 123//16 122//16 114//15
f 124//16 123//16 115//15
f 125//16 124//16 116//15
f 126//16 125//16 117//15
f 127//16 126//16 118//15
f 128//16 127//16 119//15
f 130//17 129//17 121//16
f 131//17 130//17 122//16
f 132//17 131//17 123//16
f 133//17 132//17 124//16
f 134//17 133//17 125//16
f 135//17 134//17 126//16
f 136//17 135//17 127//16
f 129//17 130//17 137//18
f 130//17 131//17 138//18
f 140//18 139//18 131//17
f 141//18 140//18 132//17
f 133//17 134//17 141//18
f 143//18 142//18 134//17
f 144//18 143//18 135//17
f 146//19 145//19 137//18
f 147//19 146//19 138//18
f 148//19 147//19 139//18
f 149//19 148//19 140//18
f 150//19 149//19 141//18
f 151//19 150//19 142//18
f 152//19 151//19 143//18
f 154//20 153//20 145//19
f 155//20 154//20 146//19
f 156//20 155//20 147//19
f 157//20 156//20 148//19
f 158//20 157//20 149//19
f 159//20 158//20 150//19
f 160//20 159//20 151//19
f 162//21 161//21 153//20
f 163//21 162//21 154//20
f 164//21 163//21 155//20
f 165//21 164//21 156//20
f 166//21 165//21 157//20
f 167//21 166//21 158//20
f 168//21 167//21 159//20
f 170//22 169//22 161//21
f 171//22 170//22 162//21
f 172//22 171//22 163//21
f 173//22 172//22 164//21
f 174//22 173//22 165//21
f 175//22 174//22 166//21
f 176//22 175//22 167//21
f 169//22 170//22 177//23
f 170//22 171//22 178//23
f 180//23 179//23 171//22
f 181//23 180//23 172//22
f 182//23 181//23 173//22
f 183//23 182//23 174//22
f 184//23 183//23 175//22
f 186//24 185//24 177//23
f 187//24 186//24 178//23
f 188//24 187//24 179//23
f 189//24 188//24 180//23
f 190//24 189//24 181//23
f 191//24 190//24 182//23
f 192//24 191//24 183//23
f 194//25 193//25 185//24
f 195//25 194//25 186//24
f 196//25 195//25 187//24
f 197//25 196//25 188//24
f 198//25 197//25 189//24
f 199//25 198//25 190//24
f 200//25 199//25 191//24
f 193//25 194//25 201//26
f 194//25 195//25 202//26
f 204//26 203//26 195//25
f 205//26 204//26 196//25
f 197//25 198//25 205//26
f 207//26 206//26 198//25
f 208//26 207//26 199//25
f 210//27 209//27 201//26
f 211//27 210//27 202//26
f 212//27 211//27 203//26
f 213//27 212//27 204//26
f 214//27 213//27 205//26
f 215//27 214//27 206//26
f 216//27 215//27 207//26
f 218//28 217//28 209//27
f 219//28 218//28 210//27
f 220//28 219//28 211//27
f 221//28 220//28 212//27
f 222//28 221//28 213//27
f 223//28 222//28 214//27
f 224//28 223//28 215//27
f 226//29 225//29 217//28
f 227//29 226//29 218//28
f 228//29 227//29 219//28
f 229//29 228//29 220//28
f 230//29 229//29 221//28
f 231//29 230//29 222//28
f 232//29 231//29 223//28
f 234//30 233//30 225//29
f 235//30 234//30 226//29
f 236//30 235//30 227//29
f 237//30 236//30 228//29
f 238//30 237//30 229//29
f 239//30 238//30 230//29
f 240//30 239//30 231//29
f 233//30 234//30 241//31
f 234//30 235//30 242//31
f 244//31 243//31 235//30
f 245//31 244//31 236//30
f 246//31 245//31 237//30
f 247//31 246//31 238//30
f 248//31 247//31 239//30
f 250//32 249//32 241//31
f 251//32 250//32 242//31
f 252//32 251//32 243//31
f 253//32 252//32 244//31
f 254//32 253//32 245//31
f 255//32 254//32 246//31
f 256//32 255//32 247//31
f 2//1 1//1 249//32
f 3//1 2//1 250//32
f 4//1 3//1 251//32
f 5//1 4//1 252//32
f 6//1 5//1 253//32
f 7//1 6//1 254//32
f 8//1 7//1 255//32
